<svg width="65" height="65" viewBox="0 0 65 65" fill="none" xmlns="http://www.w3.org/2000/svg">
<rect width="65" height="65" fill="#F5F5F5"/>
<g id="Frame 1">
<rect width="1440" height="810" transform="translate(-688 -524)" fill="#202632"/>
<rect id="Rectangle 436" x="-238" y="-302" width="540" height="335" rx="20" fill="#313A49"/>
<circle id="Ellipse 61" cx="32.5" cy="32.5" r="32.5" fill="#53FFAB"/>
<g id="svg-gobbler (30) 1" clip-path="url(#clip0_0_1)">
<g id="Group">
<g id="Group_2">
<g id="Group_3">
<path id="Vector" d="M43.8889 19H22.1111C20.3922 19 19 20.3922 19 22.1111V43.8889C19 45.6078 20.3922 47 22.1111 47H43.8889C45.6078 47 47 45.6078 47 43.8889V22.1111C47 20.3922 45.6078 19 43.8889 19ZM26 42.3333C24.7089 42.3333 23.6667 41.2911 23.6667 40C23.6667 38.7089 24.7089 37.6667 26 37.6667C27.2911 37.6667 28.3333 38.7089 28.3333 40C28.3333 41.2911 27.2911 42.3333 26 42.3333ZM26 28.3333C24.7089 28.3333 23.6667 27.2911 23.6667 26C23.6667 24.7089 24.7089 23.6667 26 23.6667C27.2911 23.6667 28.3333 24.7089 28.3333 26C28.3333 27.2911 27.2911 28.3333 26 28.3333ZM33 35.3333C31.7089 35.3333 30.6667 34.2911 30.6667 33C30.6667 31.7089 31.7089 30.6667 33 30.6667C34.2911 30.6667 35.3333 31.7089 35.3333 33C35.3333 34.2911 34.2911 35.3333 33 35.3333ZM40 42.3333C38.7089 42.3333 37.6667 41.2911 37.6667 40C37.6667 38.7089 38.7089 37.6667 40 37.6667C41.2911 37.6667 42.3333 38.7089 42.3333 40C42.3333 41.2911 41.2911 42.3333 40 42.3333ZM40 28.3333C38.7089 28.3333 37.6667 27.2911 37.6667 26C37.6667 24.7089 38.7089 23.6667 40 23.6667C41.2911 23.6667 42.3333 24.7089 42.3333 26C42.3333 27.2911 41.2911 28.3333 40 28.3333Z" fill="#161616"/>
</g>
</g>
</g>
</g>
</g>
<defs>
<clipPath id="clip0_0_1">
<rect width="28" height="28" fill="white" transform="translate(19 19)"/>
</clipPath>
</defs>
</svg>
